<?xml version="1.0" encoding="utf-8"?><svg viewBox="0 0 53 24" xmlns="http://www.w3.org/2000/svg" xmlns:xlink="http://www.w3.org/1999/xlink"><style>:root>svg{display:none}:root>svg:target{display:block}</style><svg fill="none" viewBox="0 0 53 22" id="isart-icon" xmlns="http://www.w3.org/2000/svg"><g clip-path="url(#aa)" fill-rule="evenodd" clip-rule="evenodd" fill="#A2A2A2"><path d="M1.278 18.35a1.92 1.92 0 01.048-.25l.058-.317c.01-.049.01-.106.029-.164.01-.048.019-.087.029-.125.01-.087.029-.173.038-.27.01-.086.039-.173.048-.24 0-.058.087-.549.106-.587 0-.077.116-.799.135-.838.01-.134.058-.288.067-.423.01-.154.068-.356.087-.51.01-.135.048-.308.067-.443.01-.077.02-.135.039-.221.01-.058.029-.116.029-.193.029-.096.038-.279.067-.356.01-.144.048-.289.067-.433.01-.058.02-.096.03-.164.009-.048 0-.086.028-.105 0-.126.048-.25.048-.357.03-.163.068-.336.087-.5l.058-.337c.01-.038.019-.125.029-.163.01-.058.019-.077.019-.135.01-.087.029-.173.048-.26.01-.067.038-.173.038-.231.02-.096.039-.202.049-.289.01-.192.086-.385.086-.587.02-.048.048-.212.048-.26.02-.096.039-.202.048-.288l.087-.53c.01-.038.01-.048.01-.086 0-.02 0-.02.01-.039l.009-.02c0-.144.048-.317.067-.452 0-.057.048-.336.068-.365 0-.125.038-.173.038-.289.01-.048.048-.221.048-.28 0-.066.02-.095.03-.163l.076-.404c0-.125.02-.183.039-.298.01-.039.038-.222.048-.27.01-.086.029-.144.038-.24.01-.068.087-.607.116-.636 0-.086.01-.106.029-.183.01-.067.048-.404.077-.433 0-.105.019-.182.038-.288.02-.097.02-.164.048-.241l.106-.606c0-.077.087-.597.106-.626 0-.087.077-.548.106-.606 0-.068.048-.366.067-.405 0-.086.03-.24.049-.327 0-.057.125-.77.134-.808 0-.135.048-.299.068-.433 0-.077.01-.058.019-.116h20.933l-.096.635c-.02.097.01.039-.039.077l.01.048c-.029.145-.106.78-.154.847.01.087-.077.665-.116.722.01.096-.077.578-.105.693l-.058.327-.183 1.001c.01.068-.077.597-.106.645.01.145-.048.366-.077.52l-.086.51c-.01.02-.01.02-.01.039l-.01.028c.01.077-.01.26-.058.318.01.106-.038.308-.057.414-.02.115-.096.674-.135.722.01.086-.058.548-.106.606.01.048-.038.443-.087.5.02.126-.096.597-.115.77-.029.106-.039.222-.058.328l-.067.336c.01.049-.048.54-.106.617.02.077-.01.26-.058.317.01.087-.019.183-.029.28l-.105.529c.01.067-.02.288-.058.336.01.097-.039.434-.087.5.01.097-.019.203-.038.3-.01.067-.03.24-.068.288.01.058 0 .106-.01.164a.3.3 0 01-.018.086c-.01.058 0 .03-.03.068.01.067 0 .105-.01.163 0 .02-.009.058-.009.077-.01.058 0 .03-.029.068l-.057.452c-.039.116.038-.096-.01.029 0 0-.01.02-.01.01 0 0 0 .01-.01.01.01.057 0 .105-.009.163l-.038.144c.019.077-.048.481-.087.54.01.095-.058.548-.106.605.01.097-.038.453-.086.51.01.078-.01.25-.049.309.01.086-.019.192-.038.288l-.067.424c-.01.067-.049.337-.078.394.02.097-.019.222-.038.327-.02.097-.02.232-.067.299.01.087-.02.183-.03.27-.009.076-.018.192-.057.24.02.116-.048.356-.067.481-.02.125-.02.356-.087.443.01.096-.038.452-.087.51.01.087-.067.568-.105.616.01.115-.058.433-.078.568-.019.144.01.163-.134.173H3.415v-.01c-.578 0-1.155 0-1.723.01H.662c.01-.077.029-.164.048-.25l.077-.5c.01-.04.03-.212.048-.232 0-.057.068-.5.087-.529 0-.067.02-.164.029-.221.212-1.232.048-.164.298-1.79l.03.028h-.001zm4.389 1.675H8.92C9.93 15.05 11.278 7.12 12.173 1.912H8.949c.038 1.145-3.128 17.257-3.273 18.123l-.01-.01zm8.142-5.264c-.029.067-.038.192-.048.279-.01.086-.048.192-.048.288 0 .058-.03.135-.039.193-.01.067-.029.154-.038.23a2.1 2.1 0 00-.068.396c-.028.038-.105.529-.105.615l-.106.54c-.02.144-.068.26-.048.442.028.289.279.472.587.424.23-.039.211-.058.365-.145.058-.096.29-.288.27-.442.038-.058.106-.501.115-.568.03-.125.106-.51.097-.607l.01-.029c0-.01.076-.23.057-.365l.029-.097c.01-.028.01-.067.019-.105.01-.068.038-.145.02-.212.009-.02.009 0 .018-.039l.02-.086c.01-.068.01-.068.01-.125.047-.058.067-.318.086-.414.02-.125.087-.395.077-.5l.067-.29c.02-.105.048-.211.039-.307.029-.039.029-.097.02-.154.086-.135-.049-.655-.097-.8-.048-.134-.299-.538-.376-.577-.019-.048-.23-.337-.279-.365-.019-.058 0-.01-.038-.058l-.27-.337-.067-.106c-.087-.106-.49-.635-.53-.645-.018-.067-.182-.26-.24-.327-.048-.058-.212-.289-.25-.308-.02-.039-.25-.366-.289-.385-.048-.115-.135-.221-.202-.337a1.583 1.583 0 01-.096-.183c-.02-.048-.048-.144-.077-.183-.039-.22-.058-.327-.048-.567l.086-.616.145-.809c.029-.135.106-.481.086-.597.048-.067.087-.375.087-.471.038-.048.115-.54.106-.606.067-.106.096-.559.144-.722.02-.135.096-.433.087-.549.019-.02.01 0 .019-.038l.039-.164c.019-.067.048-.144.038-.212.029-.038.02-.019.039-.077.01-.029.019-.048.028-.077.02-.057.039-.096.039-.163.048-.048.106-.212.135-.29l.154-.288c.048-.029.096-.106.134-.154.049-.067.087-.096.145-.144.048-.039.317-.222.327-.24.087-.03.183-.097.28-.136.095-.038.182-.077.288-.105.221-.068.414-.097.654-.116.684-.02 1.386 0 2.08 0 .663 0 1.289.058 1.645.443.077.077.24.298.289.433.038.115.086.202.115.327a1.921 1.921 0 01.02.664c-.01.077-.03.173-.03.26-.009.087-.038.193-.047.28-.01.095-.03.23-.058.307 0 .068-.03.173-.039.25-.019.097-.038.193-.048.28a2.47 2.47 0 00-.048.288c-.01.068-.029.145-.048.231-.02.096-.039.183-.039.28-.029.086-.038.201-.057.307-.02.125-.039.222-.058.337 0 .068-.039.231-.048.289-.01.058-.01.077-.02.144-.01.048-.028.106-.028.173a2.46 2.46 0 01-.049.231 1.31 1.31 0 00-.038.26c-.01.058-.029.135-.048.212l-2.57.01c0-.183.116-.51.106-.684.048-.057.096-.423.087-.51.019-.029.01 0 .019-.048l.077-.51c.058-.067.106-.616.144-.741.02-.135.077-.337.068-.462.038-.058.038-.202.067-.27l.01-.096.028-.125c.078-.375-.067-.702-.462-.702-.317 0-.644.192-.74.462-.02.048-.02.077-.04.115-.018.096-.047.231-.047.327-.02.087-.03.145-.048.24-.02.097-.039.174-.039.28l-.038.144-.03.174c-.019.125-.047.24-.057.356-.029.019-.02.077-.029.125-.01.067-.02.087-.029.144-.01.087-.048.212-.048.299-.02.077-.029.144-.048.24-.02.096-.039.173-.039.28-.028.038-.067.317-.077.413-.01.067-.028.337-.01.404.02.058-.018.02.03.049-.048.134.125.471.202.606.048.077-.01.029.067.067-.01.048-.01.01 0 .048 0 .02.02.039.03.058l.461.626c.039.029-.029 0 .039.029 0 .057.23.327.279.365l.346.404c0 .01-.02.01.029.077l.433.54.24.298c.068.087.04.067.097.096.01.058.144.222.183.289.077.115.144.279.202.308-.02.058-.01.02.02.087.018.028.018.038.038.086l.125.356c.038.145.01.154.058.193-.049.115-.02.288-.02.414-.01.077-.019.096-.019.192-.02.029-.087.5-.087.578-.028.028 0-.01-.019.038 0 .01-.01.067-.01.067-.009.068-.019.106-.019.164a3.782 3.782 0 00-.086.49c-.02.078-.039.193-.048.29-.01.106-.049.202-.049.327-.019.02-.019.067-.028.106-.01.058-.01.086-.02.135-.019.096-.029.202-.048.288 0 .097-.048.231-.048.347-.02.029-.048.221-.048.279-.02.135-.058.27-.067.414-.02.048-.068.337-.068.413-.029.02-.029.097-.029.135-.01.068-.019.096-.029.164-.019.115-.048.24-.057.356a1.37 1.37 0 00-.048.212c-.02.067-.049.173-.058.25l-.164.462c-.086.212-.192.337-.23.433-.02.01-.136.173-.164.212-.039.048-.049.058-.087.106l-.106.115c-.077.106-.385.327-.53.385-.076.029-.144.048-.22.096-.087.01-.424.125-.732.135l-.857.02c-.163 0-.27.018-.413.018H12.47c-.106 0-.125-.019-.221-.019-.048 0-.183-.028-.24-.038-.04-.01-.068-.01-.116-.02-.049-.009-.068-.028-.125-.028-.337-.077-.434-.193-.607-.318-.029-.019-.01-.01-.029-.019-.028-.048 0-.01-.038-.058-.01-.019-.02-.019-.029-.038l-.327-.616c-.01-.087-.039-.164-.048-.25-.01-.097.01-.183-.01-.27.029-.058.067-.5.077-.606.02-.154.096-.472.087-.597a.758.758 0 00.057-.327l.01-.03s.087-.317.067-.442c.039-.048.135-.616.125-.702l.039-.145c.01-.067.029-.106.01-.163l.019-.058c0-.01.01-.048.01-.058.01-.038.01-.077.019-.115.01-.077.038-.164.028-.24.049-.068.097-.386.087-.482.039-.058.116-.597.135-.712.058-.048 1.213-.02 1.28-.02h1.309l-.096.568-.039.222c-.019.106-.057.211-.057.327h-.04.001zm19.153-6.237l.077 1.213c.01.067.01.115.01.212 0 .096.019.105.019.202 0 .27.048.548.048.827l.029.395c.019.144.019.28.019.424 0 .115.029.279.038.394l.03.597c0 .096.019.115.019.202l.048.828c0 .096.019.106.019.202 0 .24.029.356.029.616l.038.414h-1.713l.318-1.637c.048-.279.115-.539.164-.818.019-.135.048-.26.076-.404.03-.144.058-.27.078-.414l.317-1.636c.058-.27.096-.549.164-.818l.115-.606c.01-.039.01-.049.02-.106l.028-.106.01.019zm9.278 2.868h-1.665c-.068 0-.039-.057-.039-.134l.193-3.051c0-.097.02-.106.02-.193l.057-1.02c.01-.068.01-.125.01-.202 0-.174.048-.607.048-.809 0-.096.019-.115.019-.202l.02-.414c.009-.115.028-.288.028-.414h1.78c.491 0 .347.366.347.751l-.221 3.446c0 .077.01.144 0 .221-.049.433-.049.992-.097 1.415-.029.26.077.597-.5.597v.01zm-11.646 8.97c.039-.183.077-.385.116-.568.038-.202.077-.385.115-.587.039-.192.077-.385.116-.587.038-.192.077-.394.125-.577h2.54c0 .163.049.423.049.587.01.289.058.587.067.876.01.192.048.394.048.596 0 .087-.01.26.068.26h6.073c.077 0 .048-.134.067-.327.02-.24.02-.5.048-.741.01-.058 0-.125 0-.183l.068-.934c.019-.173.01-.394.038-.567.03-.183.02-.376.039-.568.01-.058 0-.116.01-.183l.096-1.492c0-.077 0-.125.01-.202.028-.212.047-.549.047-.76h.443c.067 0 .058.086.077.144l.49 2.06.184.76c.192.75.375 1.492.539 2.252l.135.568c.019.067.01.163.077.163h3.82c0-.086-.067-.279-.096-.375l-.394-1.472c-.154-.626-.347-1.242-.5-1.867-.155-.616-.347-1.242-.492-1.858-.029-.125-.077-.25-.106-.375.472 0 .828-.125 1.088-.337a1.83 1.83 0 00.693-1.463l.212-3.369c.019-.106.01-.24.029-.337l.038-.683c0-.077.01-.096.02-.154.009-.067 0-.115.009-.183.029-.163.02-.337.029-.5l.048-.674c.01-.164.01-.356.029-.52l.057-1.02h1.146c0 .318-.048.626-.048.943l-.068.944c-.019.163-.01.317-.019.48l-.067.944c0 .173-.01.337-.03.481l-.23 3.792c-.02.135-.02.337-.03.472 0 .086-.018.115-.018.221l-.308 5.005c-.01.144-.039.318-.039.462l-.057.953c-.02.144-.03.317-.03.48h3.773c.078 0 .049-.105.049-.192 0-.154.038-.307.038-.48l.077-1.194a3.53 3.53 0 00.029-.472c0-.087.02-.125.02-.24 0-.116.018-.145.018-.241 0-.125.01-.346.03-.472.028-.163.009-.327.028-.49.01-.145.03-.308.03-.462l.038-.482c0-.106.01-.144.019-.221l.038-.741c.02-.28.058-.664.068-.943l.048-.963c.01-.144.038-.308.038-.462 0-.163.03-.327.039-.481.01-.337.038-.625.048-.962l.337-5.227c.01-.086.01-.154.01-.25 0-.086.019-.125.019-.24h2.502c-.067-.28-.116-.568-.183-.867l-.26-1.299-.086-.443c-.03-.134-.058-.288-.087-.423-.029-.154-.077-.298-.077-.452h-6.93c-.01.067-.029.115-.048.173-.058.163-.135.346-.173.51h-.038c-.02-.067-.087-.116-.135-.164a1.449 1.449 0 00-.356-.24c-.318-.193-.819-.28-1.242-.28h-7.257c0 .26-.038.463-.038.703 0 .077-.01.106-.01.154-.01.068 0 .125-.01.183-.01.096-.019.25-.029.347-.01.057 0 .115 0 .173l-.057.885c-.03.212-.039.79-.058 1.059l-.029.52c0 .182-.038.337-.038.51l-.106 1.578c-.01.289-.058.587-.048.876 0 .289-.039.587-.048.876l-.135 2.079c0 .413-.068.837-.068 1.25h-.019c0-.346-.125-1-.154-1.385l-.029-.231c-.01-.096-.01-.144-.019-.231l-.327-2.762c-.087-.607-.125-1.242-.221-1.839l-.058-.461-.491-4.158c-.02-.174-.039-.116-.404-.116h-3.62l-.654 2.705c-.51 2.03-.981 4.07-1.491 6.111a16.92 16.92 0 00-.164.674l-1.068 4.398-.087.347-.991 4.07c-.01.03-.087.338-.087.338.01.048 0 .029.058.029h3.705v.038z"/></g><defs><clipPath id="aa"><path fill="#fff" transform="translate(.662 .16)" d="M0 0h52.338v21.684H0z"/></clipPath></defs></svg><svg fill="none" viewBox="0 0 24 24" id="modal-close-icon" xmlns="http://www.w3.org/2000/svg"><path d="M18 6L6 18M6 6l12 12" stroke="#000" stroke-width="2" stroke-linecap="round" stroke-linejoin="round"/></svg></svg>