<svg width="18" height="22" fill="none" xmlns="http://www.w3.org/2000/svg"><path d="m7.252 16.875-2.428 3.55c-.346.505-1.134.29-1.175-.32l-.043-.648a.449.449 0 0 0-.583-.398l-.62.194c-.583.183-1.07-.473-.724-.978l2.22-3.246m10.955 1.1-.734-1.072m-3.352 1.846 2.409 3.523c.345.504 1.133.29 1.174-.321l.044-.648a.449.449 0 0 1 .582-.398l.62.194c.583.183 1.07-.473.724-.978l-.866-1.267" stroke="#333" stroke-miterlimit="10" stroke-linecap="round" stroke-linejoin="round"/><path d="M9.891 1.736c.606-.798 1.875-.458 2 .536.094.735.862 1.178 1.544.891.924-.388 1.853.541 1.465 1.465-.287.683.156 1.45.89 1.543.995.126 1.335 1.395.537 2.001a1.119 1.119 0 0 0 0 1.782c.798.606.458 1.875-.536 2a1.119 1.119 0 0 0-.891 1.544c.388.924-.541 1.853-1.465 1.465a1.119 1.119 0 0 0-1.543.89c-.126.995-1.395 1.335-2 .537a1.119 1.119 0 0 0-1.783 0c-.606.798-1.875.458-2-.536a1.119 1.119 0 0 0-1.544-.891c-.924.388-1.853-.541-1.465-1.465a1.119 1.119 0 0 0-.89-1.543c-.995-.126-1.335-1.395-.537-2 .59-.449.59-1.335 0-1.783-.798-.606-.458-1.875.537-2a1.119 1.119 0 0 0 .89-1.544c-.388-.924.541-1.853 1.465-1.465a1.119 1.119 0 0 0 1.543-.89c.126-.995 1.395-1.335 2.001-.537.448.59 1.334.59 1.782 0Z" stroke="#333" stroke-miterlimit="10" stroke-linecap="round" stroke-linejoin="round"/><path d="M11.926 5.123a4.907 4.907 0 1 1-1.016-.582" stroke="#333" stroke-miterlimit="10" stroke-linecap="round" stroke-linejoin="round"/><path d="m8.732 11.337-.928.488a.576.576 0 0 1-.836-.607l.178-1.034a.576.576 0 0 0-.166-.51l-.75-.731a.576.576 0 0 1 .318-.982l1.038-.151a.576.576 0 0 0 .434-.315l.464-.94a.576.576 0 0 1 1.032 0l.464.94a.576.576 0 0 0 .434.315l1.038.15c.472.07.66.65.319.983l-.751.732a.575.575 0 0 0-.166.51l.178 1.033a.576.576 0 0 1-.836.607l-.928-.488a.576.576 0 0 0-.536 0Z" stroke="#333" stroke-miterlimit="10" stroke-linecap="round" stroke-linejoin="round"/></svg>