<svg width="53" height="22" viewBox="0 0 53 22" fill="none" xmlns="http://www.w3.org/2000/svg">
<g clip-path="url(#clip0_535_312)">
<path fill-rule="evenodd" clip-rule="evenodd" d="M1.27805 18.3504C1.2877 18.2638 1.30691 18.1772 1.3262 18.1002L1.3839 17.7826C1.39355 17.7345 1.39355 17.6767 1.4128 17.619C1.4224 17.5709 1.43201 17.5324 1.44165 17.4939C1.4513 17.4073 1.47051 17.3207 1.48015 17.2244C1.4898 17.1378 1.51865 17.0512 1.5283 16.9838C1.5283 16.9261 1.61494 16.4353 1.63415 16.3968C1.63415 16.3198 1.74969 15.598 1.7689 15.5594C1.77854 15.4247 1.8266 15.2707 1.83625 15.136C1.84589 14.9819 1.90364 14.7798 1.92289 14.6259C1.93254 14.4911 1.97104 14.3179 1.99029 14.1831C1.99993 14.1061 2.00949 14.0484 2.02879 13.9618C2.03843 13.904 2.05768 13.8463 2.05768 13.7693C2.08653 13.6731 2.09618 13.4902 2.12503 13.4132C2.13468 13.2688 2.17318 13.1244 2.19243 12.9801C2.20203 12.9223 2.21164 12.8838 2.22128 12.8165C2.23093 12.7683 2.22128 12.7298 2.25018 12.7106C2.25018 12.5855 2.29828 12.4603 2.29828 12.3545C2.32718 12.1909 2.36567 12.0176 2.38492 11.854C2.40417 11.7385 2.42342 11.6326 2.44267 11.5171C2.45228 11.4786 2.46188 11.392 2.47153 11.3535C2.48117 11.2958 2.49078 11.2765 2.49078 11.2188C2.50038 11.1322 2.51963 11.0456 2.53888 10.9589C2.54852 10.8916 2.57738 10.7857 2.57738 10.728C2.59663 10.6317 2.61592 10.5259 2.62552 10.4392C2.63517 10.2467 2.71217 10.0543 2.71217 9.85216C2.73137 9.80402 2.76031 9.64042 2.76031 9.59227C2.77952 9.49603 2.79881 9.39017 2.80846 9.30353L2.8951 8.77419C2.90471 8.73569 2.90471 8.72604 2.90471 8.68754C2.90471 8.66829 2.90471 8.66829 2.91435 8.64904L2.924 8.62979C2.924 8.48544 2.9721 8.3122 2.99135 8.17745C2.99135 8.11975 3.03949 7.84061 3.05874 7.81171C3.05874 7.68661 3.09724 7.63851 3.09724 7.52297C3.10689 7.47482 3.14539 7.30162 3.14539 7.24387C3.14539 7.17652 3.1646 7.14766 3.17424 7.08027L3.25124 6.67603C3.25124 6.55093 3.27049 6.49313 3.28978 6.37764C3.29939 6.33914 3.32828 6.15625 3.33788 6.10819C3.34753 6.02154 3.36678 5.96379 3.37638 5.86759C3.38603 5.80019 3.46303 5.26121 3.49192 5.23235C3.49192 5.14571 3.50153 5.1265 3.52078 5.0495C3.53042 4.98211 3.56892 4.64526 3.59782 4.61637C3.59782 4.51052 3.61702 4.43352 3.63632 4.32762C3.65552 4.23138 3.65552 4.16402 3.68442 4.08703L3.79031 3.48069C3.79031 3.40364 3.87696 2.88395 3.89616 2.8551C3.89616 2.76845 3.97316 2.3065 4.00202 2.24876C4.00202 2.18136 4.05016 1.88301 4.06941 1.84447C4.06941 1.75787 4.09826 1.60392 4.11756 1.51727C4.11756 1.45952 4.24266 0.747332 4.25226 0.70879C4.25226 0.574086 4.30041 0.410443 4.31965 0.275696C4.31965 0.198698 4.32926 0.217948 4.33886 0.160156H25.2721L25.1758 0.795349C25.1566 0.891597 25.1855 0.833848 25.1373 0.872348L25.147 0.920493C25.1181 1.06484 25.0411 1.70008 24.9929 1.76743C25.0026 1.85408 24.9159 2.43152 24.8774 2.48927C24.8871 2.58547 24.8004 3.06676 24.7716 3.18221L24.7138 3.50945L24.531 4.51043C24.5406 4.57778 24.454 5.10712 24.4251 5.15527C24.4347 5.29962 24.377 5.52101 24.3481 5.67501L24.2615 6.18506C24.2518 6.20431 24.2518 6.20431 24.2518 6.2236L24.2422 6.25245C24.2518 6.32945 24.2326 6.51234 24.1845 6.57005C24.1941 6.6759 24.146 6.87804 24.1267 6.98389C24.1075 7.09939 24.0305 7.65758 23.992 7.70569C24.0016 7.79233 23.9343 8.25428 23.8861 8.31207C23.8958 8.36017 23.8476 8.75477 23.7995 8.81252C23.8187 8.93762 23.7033 9.40925 23.684 9.58246C23.6551 9.68835 23.6455 9.80385 23.6263 9.9097L23.5589 10.2465C23.5685 10.2947 23.5107 10.7855 23.453 10.8625C23.4722 10.9395 23.4434 11.1224 23.3953 11.1801C23.4049 11.2667 23.3761 11.363 23.3664 11.4592L23.2606 11.9886C23.2702 12.0559 23.2413 12.2773 23.2028 12.3254C23.2125 12.4216 23.1643 12.7585 23.1162 12.8259C23.1258 12.9221 23.097 13.028 23.0777 13.1242C23.068 13.1916 23.0488 13.3648 23.0103 13.413C23.0199 13.4707 23.0103 13.5189 23.0007 13.5766C23.0007 13.6055 22.9911 13.6343 22.9815 13.6633C22.9718 13.721 22.9815 13.6921 22.9526 13.7306C22.9622 13.798 22.9526 13.8365 22.9429 13.8942C22.9429 13.9135 22.9333 13.952 22.9333 13.9713C22.9237 14.029 22.9333 14.0001 22.9044 14.0386L22.8467 14.491C22.8082 14.6065 22.8852 14.3947 22.8371 14.5198C22.8371 14.5198 22.8275 14.5391 22.8275 14.5295C22.8275 14.5295 22.8275 14.5391 22.8178 14.5391C22.8275 14.5968 22.8178 14.645 22.8082 14.7027L22.7697 14.8471C22.7889 14.9241 22.7216 15.3283 22.6831 15.3861C22.6927 15.4823 22.6254 15.9346 22.5772 15.9924C22.5869 16.0886 22.5387 16.4447 22.4906 16.5025C22.5002 16.5795 22.4809 16.7527 22.4424 16.8105C22.4521 16.8971 22.4232 17.003 22.4039 17.0992L22.3365 17.5227C22.3269 17.5901 22.2884 17.8596 22.2595 17.9173C22.2788 18.0136 22.2403 18.1387 22.221 18.2445C22.2018 18.3408 22.2018 18.4755 22.1537 18.5429C22.1633 18.6296 22.1344 18.7258 22.1248 18.8124C22.1151 18.8894 22.1056 19.0049 22.0671 19.053C22.0863 19.1685 22.0189 19.4091 21.9997 19.5342C21.9804 19.6593 21.9805 19.8903 21.913 19.9769C21.9227 20.0732 21.8745 20.4293 21.8264 20.487C21.836 20.5737 21.759 21.0549 21.7205 21.103C21.7302 21.2185 21.6628 21.5361 21.6435 21.6708C21.6243 21.8152 21.6531 21.8344 21.5088 21.844H3.41471V21.8344C2.83722 21.8344 2.25978 21.8344 1.69194 21.844H0.662109C0.671713 21.767 0.690962 21.6804 0.710255 21.5938L0.787253 21.0933C0.796856 21.0548 0.816106 20.8816 0.835398 20.8624C0.835398 20.8046 0.90275 20.3619 0.922043 20.333C0.922043 20.2656 0.941249 20.1694 0.950896 20.1116C1.16264 18.8797 0.999041 19.948 1.24929 18.3215L1.27814 18.3503L1.27805 18.3504ZM5.66678 20.0251H8.91987C9.93046 15.0492 11.2779 7.11868 12.173 1.91187L8.94881 1.91182C8.98731 3.05711 5.82086 19.1685 5.67647 20.0348L5.66683 20.0251H5.66678ZM13.8091 14.7605C13.7802 14.8279 13.7706 14.953 13.7609 15.0396C13.7513 15.1262 13.7128 15.2321 13.7128 15.3284C13.7128 15.3861 13.6839 15.4631 13.6743 15.5209C13.6647 15.5882 13.6454 15.6749 13.6358 15.7518C13.6166 15.7807 13.5684 16.0791 13.5684 16.1465C13.5396 16.185 13.4626 16.6758 13.4626 16.7624L13.3567 17.3014C13.3375 17.4458 13.2893 17.5613 13.3086 17.7441C13.3374 18.0328 13.5877 18.2157 13.8956 18.1676C14.1266 18.129 14.1074 18.1098 14.2614 18.0232C14.3191 17.927 14.5501 17.7345 14.5308 17.5805C14.5693 17.5228 14.6367 17.08 14.6463 17.0127C14.6752 16.8876 14.7522 16.5026 14.7426 16.4063L14.7522 16.3774C14.7522 16.3678 14.8292 16.1465 14.8099 16.0117L14.8388 15.9154C14.8484 15.8866 14.8484 15.8481 14.858 15.8096C14.8676 15.7422 14.8965 15.6652 14.8773 15.5978C14.8869 15.5786 14.8869 15.5978 14.8965 15.5593L14.9157 15.4727C14.9253 15.4053 14.9253 15.4053 14.9253 15.3476C14.9735 15.2899 14.9927 15.03 15.012 14.9338C15.0312 14.8086 15.0986 14.5392 15.089 14.4333L15.1564 14.1445C15.1756 14.0387 15.2045 13.9328 15.1948 13.8366C15.2237 13.7981 15.2237 13.7403 15.2141 13.6826C15.3007 13.5478 15.166 13.0281 15.1179 12.8837C15.0697 12.749 14.8195 12.3447 14.7425 12.3062C14.7233 12.2581 14.5116 11.9694 14.4634 11.9405C14.4442 11.8828 14.4634 11.9309 14.4249 11.8828L14.1554 11.546L14.0881 11.4401C14.0014 11.3342 13.5972 10.8049 13.5587 10.7952C13.5395 10.7279 13.3758 10.5353 13.3181 10.468C13.27 10.4103 13.1064 10.1792 13.0678 10.16C13.0486 10.1215 12.8176 9.79429 12.7791 9.77504C12.7309 9.65954 12.6444 9.55365 12.577 9.43819C12.5481 9.39005 12.5096 9.32269 12.4807 9.2553C12.4615 9.2072 12.4326 9.11095 12.4037 9.07245C12.3652 8.85106 12.346 8.74521 12.3556 8.50461L12.4422 7.88866L12.5866 7.08018C12.6155 6.94548 12.6925 6.59899 12.6733 6.48349C12.7214 6.41609 12.7599 6.10814 12.7599 6.01185C12.7984 5.96371 12.8754 5.47287 12.8658 5.40551C12.9331 5.29962 12.962 4.84728 13.0101 4.68368C13.0293 4.54897 13.1064 4.25058 13.0968 4.13513C13.116 4.11592 13.1064 4.13513 13.116 4.09663L13.1545 3.93303C13.1737 3.86563 13.2026 3.78864 13.193 3.72128C13.2219 3.68278 13.2122 3.70203 13.2315 3.64424C13.2411 3.61539 13.2507 3.59614 13.2604 3.56724C13.2796 3.50954 13.2989 3.47104 13.2989 3.40364C13.347 3.3555 13.4048 3.1919 13.4336 3.1149L13.5876 2.82616C13.6358 2.79726 13.6839 2.72026 13.7224 2.67216C13.7705 2.60477 13.809 2.57591 13.8667 2.52777C13.9149 2.48927 14.1843 2.30642 14.194 2.28717C14.2806 2.25832 14.3768 2.19096 14.4731 2.15246C14.5693 2.11392 14.6559 2.07542 14.7618 2.04657C14.9832 1.97922 15.1756 1.95037 15.4162 1.93107C16.0996 1.91187 16.8022 1.93107 17.4952 1.93107C18.1592 1.93107 18.7848 1.98878 19.1409 2.37377C19.2179 2.45077 19.3815 2.67216 19.4297 2.80691C19.4682 2.9224 19.5163 3.00901 19.5452 3.13415C19.5741 3.26885 19.5837 3.394 19.5837 3.5576C19.5837 3.61535 19.5741 3.72124 19.5645 3.7982C19.5548 3.87519 19.5356 3.97144 19.5356 4.05809C19.526 4.14473 19.4971 4.25058 19.4875 4.33718C19.4778 4.43343 19.4586 4.56818 19.4297 4.64518C19.4297 4.71253 19.4009 4.81842 19.3912 4.89542C19.372 4.99163 19.3527 5.08792 19.3431 5.17452C19.3335 5.20337 19.295 5.42476 19.295 5.46326C19.2853 5.53066 19.2661 5.60761 19.2468 5.69421C19.2276 5.79046 19.2083 5.87711 19.2083 5.97331C19.1794 6.05996 19.1698 6.17545 19.1506 6.2813C19.1314 6.40641 19.1121 6.5027 19.0929 6.61815C19.0929 6.68555 19.0544 6.8491 19.0447 6.90689C19.0351 6.96464 19.0351 6.98389 19.0255 7.05129C19.0159 7.09939 18.9966 7.15714 18.9966 7.22449C18.987 7.29189 18.9678 7.37849 18.9485 7.45549C18.9293 7.54213 18.91 7.63834 18.91 7.71533C18.9004 7.77308 18.8811 7.85008 18.8619 7.92708L16.2921 7.93672C16.2921 7.75388 16.4076 7.42663 16.398 7.25334C16.4461 7.19564 16.4942 6.82985 16.4846 6.74329C16.5039 6.7144 16.4943 6.74329 16.5039 6.69515L16.5809 6.18506C16.6386 6.11766 16.6867 5.56911 16.7252 5.44397C16.7445 5.30922 16.8022 5.10712 16.7926 4.98198C16.8311 4.92427 16.8311 4.77988 16.86 4.71253L16.8696 4.61628L16.8985 4.49118C16.9755 4.11584 16.8311 3.78859 16.4365 3.78859C16.1189 3.78859 15.7916 3.98109 15.6954 4.25058C15.6762 4.29873 15.6762 4.32758 15.6569 4.36608C15.6377 4.46233 15.6088 4.59707 15.6088 4.69332C15.5896 4.77997 15.5799 4.83767 15.5606 4.93392C15.5414 5.03017 15.5221 5.10717 15.5221 5.21302L15.4836 5.35737L15.4547 5.53061C15.4355 5.65571 15.4066 5.77121 15.397 5.88675C15.3682 5.90596 15.3778 5.96375 15.3682 6.01185C15.3585 6.07921 15.3489 6.0985 15.3393 6.1562C15.3296 6.24285 15.2911 6.36795 15.2911 6.45459C15.2719 6.53159 15.2623 6.59894 15.243 6.69519C15.2238 6.7914 15.2045 6.86844 15.2045 6.97429C15.1756 7.01279 15.1371 7.29189 15.1275 7.38813C15.1179 7.45549 15.0986 7.72498 15.1179 7.79237C15.1371 7.85008 15.0986 7.81158 15.1467 7.84052C15.0986 7.97522 15.2718 8.31211 15.3488 8.44686C15.397 8.52386 15.3392 8.47571 15.4162 8.51425C15.4066 8.56236 15.4066 8.52386 15.4162 8.56236C15.4162 8.58161 15.4354 8.60086 15.4451 8.62011L15.9071 9.2457C15.9456 9.27455 15.8782 9.2457 15.9456 9.27455C15.9456 9.33225 16.1765 9.60179 16.2247 9.64029L16.5712 10.0445C16.5712 10.0542 16.5519 10.0542 16.6 10.1215L17.0332 10.6605L17.2738 10.9589C17.3411 11.0456 17.3123 11.0263 17.37 11.0552C17.3796 11.1129 17.5144 11.2765 17.5529 11.3439C17.6299 11.4594 17.6972 11.623 17.755 11.6518C17.7357 11.7096 17.7453 11.6711 17.7742 11.7385C17.7934 11.7674 17.7934 11.777 17.8127 11.8251L17.9378 12.1812C17.9763 12.3256 17.9474 12.3352 17.9955 12.3738C17.9474 12.4893 17.9763 12.6625 17.9763 12.7876C17.9667 12.8646 17.9571 12.8838 17.9571 12.9801C17.9378 13.009 17.8704 13.4806 17.8704 13.5576C17.8416 13.5865 17.8704 13.548 17.8512 13.5961C17.8512 13.6057 17.8416 13.6634 17.8416 13.6634C17.832 13.7308 17.8223 13.7693 17.8223 13.827C17.8031 13.8655 17.7357 14.2602 17.7357 14.3179C17.7165 14.3949 17.6972 14.5104 17.6876 14.6067C17.678 14.7125 17.6394 14.8088 17.6394 14.9339C17.6202 14.9531 17.6202 15.0013 17.6106 15.0398C17.6009 15.0975 17.6009 15.1264 17.5914 15.1745C17.5721 15.2707 17.5625 15.3766 17.5432 15.4633C17.5432 15.5595 17.4951 15.6942 17.4951 15.8097C17.4759 15.8386 17.4469 16.0311 17.4469 16.0888C17.4277 16.2236 17.3892 16.3583 17.3796 16.5027C17.3603 16.5508 17.3122 16.8395 17.3122 16.9165C17.2833 16.9357 17.2833 17.0127 17.2833 17.0512C17.2737 17.1186 17.2641 17.1474 17.2544 17.2148C17.2352 17.3303 17.2063 17.4554 17.1967 17.5709C17.1775 17.6191 17.1582 17.7249 17.1486 17.7827C17.1294 17.8501 17.1004 17.9559 17.0909 18.0329L16.9272 18.4949C16.8406 18.7067 16.7347 18.8318 16.6963 18.928C16.6771 18.9377 16.5615 19.1013 16.5327 19.1398C16.4942 19.1879 16.4845 19.1975 16.446 19.2456L16.3402 19.3611C16.2632 19.467 15.9552 19.6884 15.8108 19.7461C15.7338 19.775 15.6664 19.7942 15.5894 19.8423C15.5028 19.852 15.166 19.9674 14.858 19.9771L14.0014 19.9963C13.8378 19.9963 13.7319 20.0155 13.5876 20.0155L12.4711 20.0156C12.3653 20.0156 12.346 19.9964 12.2498 19.9964C12.2016 19.9964 12.0669 19.9675 12.0092 19.9579C11.9707 19.9483 11.9418 19.9483 11.8937 19.9387C11.8455 19.929 11.8263 19.9098 11.7686 19.9098C11.4317 19.8328 11.3355 19.7173 11.1622 19.5922C11.1333 19.573 11.1526 19.5826 11.1333 19.573C11.1045 19.5248 11.1333 19.5633 11.0948 19.5152C11.0852 19.496 11.0756 19.496 11.066 19.4767L10.7387 18.8608C10.7291 18.7741 10.7002 18.6972 10.6906 18.6105C10.6809 18.5143 10.7002 18.4277 10.6809 18.3411C10.7098 18.2833 10.7483 17.8406 10.758 17.7347C10.7772 17.5807 10.8542 17.2631 10.8446 17.138C10.8831 17.0803 10.912 16.8781 10.9023 16.8108L10.912 16.7819C10.912 16.7819 10.9986 16.4643 10.9793 16.3392C11.0178 16.291 11.1141 15.7232 11.1044 15.6366L11.1429 15.4922C11.1526 15.4248 11.1718 15.3864 11.1526 15.3286L11.1718 15.2709C11.1718 15.2613 11.1814 15.2227 11.1814 15.2132C11.1911 15.1747 11.1911 15.1362 11.2006 15.0976C11.2103 15.0206 11.2392 14.934 11.2295 14.8571C11.2777 14.7897 11.3257 14.4721 11.3162 14.3759C11.3547 14.3181 11.4317 13.7791 11.4509 13.6636C11.5086 13.6155 12.6636 13.6444 12.7309 13.6444H14.0399L13.9437 14.2123L13.9052 14.4336C13.886 14.5395 13.8475 14.6453 13.8475 14.7608H13.8089L13.8091 14.7605Z" fill="#A2A2A2"/>
<path fill-rule="evenodd" clip-rule="evenodd" d="M32.962 8.52411L33.039 9.73683C33.0486 9.80422 33.0486 9.85233 33.0486 9.94858C33.0486 10.0448 33.0678 10.0544 33.0678 10.1507C33.0678 10.4202 33.116 10.6993 33.116 10.9784L33.1448 11.373C33.164 11.5174 33.164 11.6521 33.164 11.7965C33.164 11.912 33.1929 12.0756 33.2025 12.1911L33.2314 12.7878C33.2314 12.884 33.2506 12.9033 33.2506 12.9899L33.2988 13.8176C33.2988 13.9139 33.318 13.9235 33.318 14.0197C33.318 14.2603 33.3469 14.3758 33.3469 14.6357L33.3854 15.0495L31.6723 15.0495L31.9899 13.4133C32.038 13.1342 32.1054 12.8743 32.1535 12.5952C32.1727 12.4605 32.2016 12.3354 32.2305 12.191C32.2593 12.0466 32.2882 11.9215 32.3075 11.7771L32.6251 10.141C32.6828 9.87153 32.7213 9.59244 32.7887 9.3229L32.9042 8.71652C32.9138 8.67802 32.9138 8.66841 32.9234 8.61067L32.9523 8.50481L32.9619 8.52402L32.962 8.52411ZM42.24 11.3922H40.5749C40.5075 11.3922 40.5364 11.3345 40.5364 11.2575L40.7289 8.20651C40.7289 8.11026 40.7481 8.10066 40.7481 8.01401L40.8059 6.99383C40.8155 6.92643 40.8155 6.86873 40.8155 6.79169C40.8155 6.61848 40.8636 6.18535 40.8636 5.98325C40.8636 5.88704 40.8828 5.86775 40.8828 5.78115L40.9021 5.36731C40.9117 5.25181 40.9309 5.07856 40.9309 4.95346H42.7115C43.2023 4.95346 43.0579 5.3192 43.0579 5.70419L42.8366 9.14974C42.8366 9.22674 42.8462 9.29409 42.8366 9.37113C42.7884 9.80422 42.7884 10.3625 42.7403 10.7859C42.7115 11.0458 42.8173 11.3826 42.2399 11.3826V11.3923L42.24 11.3922ZM30.5943 20.3622C30.6328 20.1794 30.6713 19.9772 30.7098 19.7944C30.7483 19.5922 30.7869 19.4094 30.8254 19.2073C30.8639 19.0148 30.9024 18.8223 30.9409 18.6202C30.9794 18.4277 31.0179 18.2256 31.066 18.0427L33.6068 18.0427C33.6068 18.2063 33.6549 18.4662 33.6549 18.6298C33.6646 18.9185 33.7127 19.2168 33.7223 19.5056C33.732 19.6981 33.7705 19.9002 33.7705 20.1023C33.7705 20.189 33.7608 20.3622 33.8378 20.3622H39.9109C39.9879 20.3622 39.959 20.2275 39.9783 20.035C39.9975 19.7944 39.9975 19.5345 40.0264 19.2939C40.036 19.2362 40.0264 19.1688 40.0264 19.111L40.0937 18.1774C40.113 18.0042 40.1034 17.7829 40.1323 17.6096C40.1611 17.4268 40.1515 17.2343 40.1707 17.0418C40.1804 16.984 40.1707 16.9262 40.1804 16.8589L40.2766 15.3671C40.2766 15.2901 40.2766 15.2419 40.2862 15.165C40.3151 14.9532 40.3344 14.6164 40.3344 14.4047H40.7771C40.8444 14.4047 40.8348 14.4913 40.8541 14.549L41.3449 16.6086C41.4026 16.8492 41.47 17.1284 41.5278 17.369C41.7203 18.1197 41.9032 18.8608 42.0668 19.6211L42.2015 20.1889C42.2207 20.2563 42.2112 20.3525 42.2785 20.3525H46.0994C46.0994 20.2659 46.032 20.0734 46.0032 19.9772L45.6086 18.5046C45.4546 17.8791 45.2621 17.2631 45.1081 16.6375C44.9541 16.0216 44.7616 15.3959 44.6173 14.78C44.5884 14.6549 44.5403 14.5298 44.5114 14.4047C44.983 14.4047 45.3391 14.2796 45.599 14.0678C46.0321 13.7213 46.3015 13.192 46.2919 12.6049L46.5037 9.23634C46.5229 9.13049 46.5133 8.99574 46.5325 8.89949L46.571 8.21611C46.571 8.13912 46.5807 8.11991 46.5902 8.06212C46.5999 7.99476 46.5902 7.94662 46.5999 7.87927C46.6288 7.71567 46.6191 7.54242 46.6288 7.37878L46.6769 6.70509C46.6865 6.54144 46.6865 6.34895 46.7058 6.18535L46.7635 5.16516H47.9088C47.9088 5.48276 47.8606 5.79075 47.8606 6.10835L47.7932 7.05154C47.774 7.21514 47.7836 7.36913 47.774 7.53273L47.7066 8.47592C47.7066 8.64916 47.697 8.81276 47.6778 8.95712L47.4468 12.7492C47.4276 12.8839 47.4276 13.086 47.4179 13.2208C47.4179 13.3074 47.3987 13.3363 47.3987 13.4422L47.0907 18.4469C47.0811 18.5913 47.0522 18.7645 47.0522 18.9089L46.9945 19.8617C46.9753 20.0061 46.9656 20.1793 46.9656 20.3429H50.7385C50.8155 20.3429 50.7866 20.2371 50.7866 20.1504C50.7866 19.9964 50.8251 19.8425 50.8251 19.6692L50.9021 18.4758C50.9214 18.3507 50.931 18.1485 50.931 18.0042C50.931 17.9175 50.9502 17.8791 50.9502 17.7636C50.9502 17.6481 50.9695 17.6192 50.9695 17.523C50.9695 17.3979 50.9791 17.1765 50.9983 17.0513C51.0272 16.8877 51.008 16.7241 51.0272 16.5605C51.0368 16.4161 51.0561 16.2525 51.0561 16.0985L51.0946 15.6173C51.0946 15.5114 51.1042 15.4729 51.1138 15.3959L51.1523 14.6549C51.1715 14.3758 51.21 13.9908 51.2197 13.7117L51.2678 12.7492C51.2775 12.6048 51.3063 12.4412 51.3063 12.2872C51.3063 12.1236 51.3352 11.96 51.3448 11.806C51.3545 11.4692 51.3833 11.1805 51.3929 10.8436L51.7298 5.61746C51.7394 5.53082 51.7394 5.46347 51.7394 5.36722C51.7394 5.28058 51.7586 5.24212 51.7586 5.12662H54.261C54.1936 4.84752 54.1455 4.55878 54.0781 4.26043L53.8183 2.96111C53.7894 2.80711 53.7605 2.67237 53.7316 2.51841C53.7027 2.38367 53.6739 2.22967 53.645 2.09492C53.6161 1.94093 53.5679 1.79653 53.5679 1.64258H46.6383C46.6287 1.70997 46.6095 1.75812 46.5902 1.81582C46.5325 1.97942 46.4555 2.16232 46.417 2.32592H46.3785C46.3592 2.25852 46.2918 2.21038 46.2437 2.16227C46.1379 2.05642 46.0128 1.98907 45.8876 1.92168C45.57 1.72918 45.0695 1.64258 44.646 1.64258H37.3892C37.3892 1.90247 37.3507 2.10457 37.3507 2.34517C37.3507 2.42221 37.341 2.45106 37.341 2.49916C37.3314 2.56656 37.341 2.62426 37.3314 2.68205C37.3218 2.77826 37.3122 2.9323 37.3025 3.02855C37.2929 3.08625 37.3025 3.14404 37.3025 3.20175L37.2448 4.08723C37.2159 4.29898 37.2063 4.87646 37.1871 5.14591L37.1582 5.66565C37.1582 5.8485 37.1197 6.0025 37.1197 6.1757L37.0138 7.75412C37.0042 8.04287 36.9561 8.34121 36.9657 8.62996C36.9657 8.9187 36.9272 9.21705 36.9176 9.50579L36.7828 11.5847C36.7828 11.9985 36.7154 12.422 36.7154 12.8358H36.6962C36.6962 12.4893 36.5711 11.8349 36.5422 11.4499L36.5134 11.2189C36.5037 11.1227 36.5037 11.0746 36.4941 10.988L36.1669 8.22576C36.0802 7.61938 36.0418 6.98418 35.9455 6.38745L35.8878 5.9255L35.3969 1.76772C35.3777 1.59448 35.3584 1.65222 34.9927 1.65222L31.3739 1.65218L30.7194 4.35664C30.2093 6.3874 29.7377 8.42777 29.2276 10.4682C29.1699 10.6896 29.1121 10.9205 29.064 11.1419L27.9957 15.5403L27.909 15.8867L26.9177 19.9579C26.9081 19.9868 26.8311 20.2947 26.8311 20.2947C26.8407 20.3429 26.8311 20.3236 26.8888 20.3236H30.5942V20.3621L30.5943 20.3622Z" fill="#A2A2A2"/>
</g>
<defs>
<clipPath id="clip0_535_312">
<rect width="52.3379" height="21.6839" fill="white" transform="translate(0.662109 0.160156)"/>
</clipPath>
</defs>
</svg>
